<svg xmlns="http://www.w3.org/2000/svg" viewBox="0 0 412.78 81.15"><defs><style>.cls-1{fill:#fff;}.cls-2{fill:#00a599;}</style></defs><g id="Layer_2" data-name="Layer 2"><g id="Layer_1-2" data-name="Layer 1"><path class="cls-1" d="M58.94,60.72a29.64,29.64,0,1,1,0-43.6,44.06,44.06,0,0,1,5.25-7.76,38.91,38.91,0,1,0,0,59.12A44.43,44.43,0,0,1,58.94,60.72Z"/><path class="cls-2" d="M123,57.54a29.65,29.65,0,1,1,.86-36.09h10.84a38.87,38.87,0,1,0-.56,36.09Z"/><path class="cls-2" d="M178,68.67v4.07A19.33,19.33,0,0,1,168.62,75a14.47,14.47,0,0,1-7.34-1.74,12.78,12.78,0,0,1-4.78-4.79,13,13,0,0,1-1.76-6.62,12.58,12.58,0,0,1,4-9.49,13.79,13.79,0,0,1,9.92-3.86,23.26,23.26,0,0,1,9.06,2.13v4a17.8,17.8,0,0,0-8.86-2.6,10.24,10.24,0,0,0-7.38,2.81,9.3,9.3,0,0,0-2.94,7,9.19,9.19,0,0,0,2.89,7,10.28,10.28,0,0,0,7.39,2.74A16.77,16.77,0,0,0,178,68.67Z"/><path class="cls-2" d="M195.28,48.43a13.92,13.92,0,0,1,10,3.8,12.61,12.61,0,0,1,4,9.51,12.39,12.39,0,0,1-4,9.47A14.28,14.28,0,0,1,195.08,75a13.51,13.51,0,0,1-9.75-3.75,12.48,12.48,0,0,1-3.89-9.4,12.76,12.76,0,0,1,3.92-9.58A13.68,13.68,0,0,1,195.28,48.43Zm.15,3.52a10,10,0,0,0-7.3,2.78,9.43,9.43,0,0,0-2.86,7.08,9.28,9.28,0,0,0,2.87,7,10.66,10.66,0,0,0,14.4-.06,9.45,9.45,0,0,0,2.89-7,9.24,9.24,0,0,0-2.89-6.92A9.84,9.84,0,0,0,195.43,52Z"/><path class="cls-2" d="M234.37,48.8h3.46V74.66h-3.72V54.54l-8,10h-.69l-8-10V74.66h-3.7V48.8h3.5l8.6,10.62Z"/><path class="cls-2" d="M243.2,74.66V48.76h8.21a8.47,8.47,0,0,1,5.9,2,6.89,6.89,0,0,1,2.2,5.37,7.12,7.12,0,0,1-1.13,4,6.47,6.47,0,0,1-3.09,2.53,15.82,15.82,0,0,1-5.63.79h-2.74V74.66Zm7.56-22.6h-3.84v8.09H251a5.19,5.19,0,0,0,3.48-1.06A3.85,3.85,0,0,0,255.68,56Q255.68,52.07,250.76,52.06Z"/><path class="cls-2" d="M280.73,48.8h3.72V63.48A17.47,17.47,0,0,1,284,68a9.48,9.48,0,0,1-1.08,2.53,8.08,8.08,0,0,1-1.56,1.8,13.65,13.65,0,0,1-16.14,0,8.46,8.46,0,0,1-1.57-1.82A9.42,9.42,0,0,1,262.61,68a18.78,18.78,0,0,1-.41-4.59V48.8h3.72V63.48a11,11,0,0,0,.83,5.08,6,6,0,0,0,2.54,2.28,8.83,8.83,0,0,0,4,.86A8.12,8.12,0,0,0,278.68,70a5.46,5.46,0,0,0,1.57-2.18,13.51,13.51,0,0,0,.48-4.32Z"/><path class="cls-2" d="M287.38,48.76H309v3.3h-9v22.6h-3.72V52.06h-8.87Z"/><path class="cls-2" d="M317,48.65h2.6l11.6,26h-3.8L323.91,67h-11l-3.23,7.66h-3.81Zm5.44,15.06-4.17-9.37-3.88,9.37Z"/><path class="cls-2" d="M346.79,75l-.09.32a2.85,2.85,0,0,1,1.57.92,2.41,2.41,0,0,1,.56,1.56,3.1,3.1,0,0,1-1.13,2.4,5.48,5.48,0,0,1-3.61,1,6.91,6.91,0,0,1-1.2-.1V79c.63.05,1,.07,1.18.07a2.88,2.88,0,0,0,1.65-.4.74.74,0,0,0,.35-.63.9.9,0,0,0-.38-.74,2.36,2.36,0,0,0-1.4-.3,1.58,1.58,0,0,0-.42.06l.77-2.19a12.7,12.7,0,0,1-9.91-6.41A13,13,0,0,1,333,61.81a12.61,12.61,0,0,1,4-9.49,13.84,13.84,0,0,1,9.94-3.86A23.3,23.3,0,0,1,356,50.59v4a17.77,17.77,0,0,0-8.86-2.6,10.24,10.24,0,0,0-7.38,2.81,9.3,9.3,0,0,0-2.94,7,9.19,9.19,0,0,0,2.89,7,10.3,10.3,0,0,0,7.39,2.74,16.77,16.77,0,0,0,9.18-2.88v4.07a19.32,19.32,0,0,1-9.4,2.22Z"/><path class="cls-2" d="M369.08,48.65h2.61l11.59,26H379.5L376,67H365l-3.23,7.66H358Zm6.76-6.88a5.54,5.54,0,0,1-1,3.5,2.4,2.4,0,0,1-1.95,1,7.35,7.35,0,0,1-2.74-.74,7.71,7.71,0,0,0-2.59-.74,1.16,1.16,0,0,0-.84.37,1.88,1.88,0,0,0-.42,1.11h-1.56a6.65,6.65,0,0,1,1.08-3.48,2.49,2.49,0,0,1,2-.88,11.1,11.1,0,0,1,3.5,1,5.73,5.73,0,0,0,1.78.5,1.19,1.19,0,0,0,.88-.37,2.07,2.07,0,0,0,.48-1.22Zm-1.32,21.94-4.16-9.37-3.88,9.37Z"/><path class="cls-2" d="M398.81,48.43a13.9,13.9,0,0,1,10,3.8,12.58,12.58,0,0,1,4,9.51,12.36,12.36,0,0,1-4,9.47A14.29,14.29,0,0,1,398.6,75a13.5,13.5,0,0,1-9.74-3.75,12.52,12.52,0,0,1-3.89-9.4,12.79,12.79,0,0,1,3.92-9.58A13.68,13.68,0,0,1,398.81,48.43ZM399,52a10,10,0,0,0-7.3,2.78,9.46,9.46,0,0,0-2.86,7.08,9.31,9.31,0,0,0,2.87,7,10.66,10.66,0,0,0,14.4-.06,9.45,9.45,0,0,0,2.89-7,9.24,9.24,0,0,0-2.89-6.92A9.82,9.82,0,0,0,399,52Z"/><path class="cls-1" d="M165.94,10.8a8.72,8.72,0,0,0-6.81,2.77,10.94,10.94,0,0,0-2.48,7.57q0,4.92,2.35,7.63a8.32,8.32,0,0,0,6.69,2.72,18.27,18.27,0,0,0,5.31-.74v1.41a17.21,17.21,0,0,1-5.69.8,9.65,9.65,0,0,1-7.61-3.12c-1.86-2.08-2.79-5-2.79-8.73a13.63,13.63,0,0,1,1.33-6.17,9.58,9.58,0,0,1,3.82-4.12,11.23,11.23,0,0,1,5.78-1.46,13.85,13.85,0,0,1,6,1.26l-.65,1.44A11.72,11.72,0,0,0,165.94,10.8Z"/><path class="cls-1" d="M176.11,32.65v-23h1.6v23Z"/><path class="cls-1" d="M196.77,32.65H184.22v-23h12.55v1.48h-11v8.68h10.33v1.48H185.82v9.84h11Zm-10.86-25c.65-.71,1.34-1.52,2.07-2.46a25.2,25.2,0,0,0,1.73-2.45h1.54a31.07,31.07,0,0,0,3.8,4.91v.25H194a39,39,0,0,1-3.47-3.26A37.54,37.54,0,0,1,187,7.86h-1.1Z"/><path class="cls-1" d="M218.66,32.65H217l-13.6-20.38h-.12q.18,3.64.18,5.49V32.65H202v-23h1.6l13.59,20.36h.09c-.09-1.89-.14-3.68-.14-5.38v-15h1.56Z"/><path class="cls-1" d="M235,10.8a8.68,8.68,0,0,0-6.8,2.77,11,11,0,0,0-2.49,7.57c0,3.28.79,5.82,2.34,7.63a8.36,8.36,0,0,0,6.7,2.72,18.27,18.27,0,0,0,5.31-.74v1.41a17.21,17.21,0,0,1-5.69.8,9.67,9.67,0,0,1-7.61-3.12c-1.86-2.08-2.79-5-2.79-8.73a13.63,13.63,0,0,1,1.33-6.17,9.58,9.58,0,0,1,3.82-4.12,11.26,11.26,0,0,1,5.78-1.46,13.88,13.88,0,0,1,6,1.26l-.64,1.44A11.79,11.79,0,0,0,235,10.8Z"/><path class="cls-1" d="M245.13,32.65v-23h1.61v23Z"/><path class="cls-1" d="M264.29,24.55H255l-3.2,8.1H250l9.23-23h1l9.05,23h-1.81Zm-8.74-1.44h8.21l-3.13-8.28c-.26-.65-.57-1.55-.94-2.7a24.13,24.13,0,0,1-.93,2.73Z"/><path class="cls-1" d="M298.32,21c0,3.85-1,6.77-3,8.74s-5,3-8.91,3h-5.5v-23h6.21q5.49,0,8.36,2.88C297.37,14.48,298.32,17.28,298.32,21Zm-1.74.06c0-3.28-.83-5.76-2.5-7.42s-4.12-2.48-7.36-2.48h-4.23V31.24h3.8Q296.58,31.24,296.58,21Z"/><path class="cls-1" d="M314.66,24.55h-9.33l-3.21,8.1h-1.77l9.24-23h1l9,23h-1.81Zm-8.75-1.44h8.21L311,14.83c-.26-.65-.58-1.55-.94-2.7q-.44,1.5-.93,2.73Z"/><path class="cls-2" d="M100,45.91a7,7,0,1,1,7-7A7,7,0,0,1,100,45.91Z"/><rect class="cls-2" x="100" y="37.33" width="37.76" height="3.18"/></g></g></svg>