<svg xmlns="http://www.w3.org/2000/svg" viewBox="0 0 411.76 232.66"><defs><style>.cls-1{fill:#fff;}.cls-2{fill:#00a599;}</style></defs><g id="Layer_2"><g id="Layer_1-2"><path class="cls-1" d="M176.18,181.5a88.58,88.58,0,1,1,0-130.34A133.75,133.75,0,0,1,191.87,28a116.33,116.33,0,1,0,0,176.73A133.83,133.83,0,0,1,176.18,181.5Z"/><path class="cls-2" d="M367.76,172a88.63,88.63,0,1,1,2.59-107.87h32.4A116.21,116.21,0,1,0,401.06,172Z"/><path class="cls-2" d="M298.9,137.23a20.91,20.91,0,1,1,20.89-20.91A20.89,20.89,0,0,1,298.9,137.23Z"/><rect class="cls-2" x="298.9" y="111.58" width="112.86" height="9.49"/></g></g></svg>