<svg xmlns="http://www.w3.org/2000/svg" viewBox="0 0 433.52 113.39"><defs><style>.cls-1{isolation:isolate;}.cls-2{fill:#fff;}</style></defs><g id="Layer_2" data-name="Layer 2"><g id="Layer_1-2" data-name="Layer 1"><g class="cls-1"><path class="cls-2" d="M100.75,83.92V59.71h5.14V83.92Z"/></g><g class="cls-1"><path class="cls-2" d="M133.58,83.92H127L116.5,65.61h-.15q.32,4.85.31,6.92V83.92h-4.59V59.71h6.48l10.53,18.13h.12c-.17-3.14-.25-5.37-.25-6.67V59.71h4.63Z"/><path class="cls-2" d="M154,77.2a6.24,6.24,0,0,1-2.37,5.16,10.24,10.24,0,0,1-6.57,1.89,15.45,15.45,0,0,1-6.86-1.46V78a28.23,28.23,0,0,0,4.15,1.54,12.22,12.22,0,0,0,3.11.45,4.4,4.4,0,0,0,2.59-.65,2.22,2.22,0,0,0,.91-1.92,2.15,2.15,0,0,0-.4-1.26,4.56,4.56,0,0,0-1.17-1.07,29.89,29.89,0,0,0-3.14-1.64,14.47,14.47,0,0,1-3.33-2,7.38,7.38,0,0,1-1.78-2.24,6.39,6.39,0,0,1-.66-3,6.21,6.21,0,0,1,2.18-5,9,9,0,0,1,6-1.84,14.11,14.11,0,0,1,3.61.45,24.1,24.1,0,0,1,3.59,1.25l-1.66,4A24,24,0,0,0,149,64a10.23,10.23,0,0,0-2.49-.31,3.33,3.33,0,0,0-2.24.68,2.23,2.23,0,0,0-.78,1.77,2.17,2.17,0,0,0,.32,1.18,3.46,3.46,0,0,0,1,1,32,32,0,0,0,3.26,1.7,13,13,0,0,1,4.66,3.25A6.35,6.35,0,0,1,154,77.2Z"/></g><g class="cls-1"><path class="cls-2" d="M167.8,83.92h-5.14V64h-6.58V59.71h18.31V64H167.8Z"/><path class="cls-2" d="M178.12,83.92V59.71h5.14V83.92Z"/><path class="cls-2" d="M198.71,83.92h-5.14V64H187V59.71h18.3V64h-6.58Z"/></g><g class="cls-1"><path class="cls-2" d="M228.78,59.71V75.38a9.05,9.05,0,0,1-1.2,4.7,7.87,7.87,0,0,1-3.47,3.09,12.45,12.45,0,0,1-5.38,1.08q-4.66,0-7.26-2.4a8.47,8.47,0,0,1-2.59-6.54V59.71H214V74.53a6.17,6.17,0,0,0,1.13,4.11,4.69,4.69,0,0,0,3.73,1.3,4.6,4.6,0,0,0,3.65-1.31,6.23,6.23,0,0,0,1.14-4.13V59.71Z"/></g><g class="cls-1"><path class="cls-2" d="M244.15,83.92H239V64h-6.59V59.71h18.31V64h-6.58Z"/></g><g class="cls-1"><path class="cls-2" d="M276.55,71.78q0,6-3,9.24T265,84.25q-5.58,0-8.56-3.23t-3-9.27q0-6,3-9.23T265,59.34q5.59,0,8.55,3.21T276.55,71.78Zm-17.69,0c0,2.71.51,4.74,1.54,6.11a5.39,5.39,0,0,0,4.61,2q6.15,0,6.15-8.16T265,63.61a5.42,5.42,0,0,0-4.62,2.06Q258.86,67.73,258.86,71.78Z"/><path class="cls-2" d="M295.45,83.92H290.4V59.71h13.89v4.21h-8.84v6.24h8.23v4.19h-8.23Z"/></g><g class="cls-1"><path class="cls-2" d="M323.32,83.92h-14V59.71h14v4.21H314.5v5.31h8.21v4.21H314.5v6.24h8.82Z"/><path class="cls-2" d="M348.49,71.58q0,6-3.41,9.16t-9.84,3.18h-6.86V59.71H336q5.94,0,9.22,3.13T348.49,71.58Zm-5.34.14q0-7.8-6.9-7.8h-2.73V79.68h2.2Q343.15,79.68,343.15,71.72Z"/><path class="cls-2" d="M367.48,83.92h-14V59.71h14v4.21h-8.83v5.31h8.21v4.21h-8.21v6.24h8.83Z"/><path class="cls-2" d="M377.67,74.63v9.29h-5.14V59.71h7.07q4.93,0,7.31,1.8A6.42,6.42,0,0,1,389.28,67a6.34,6.34,0,0,1-1.18,3.79,7.74,7.74,0,0,1-3.33,2.61q5.48,8.16,7.13,10.55h-5.71l-5.78-9.29Zm0-4.17h1.66a6.37,6.37,0,0,0,3.6-.81,2.9,2.9,0,0,0,1.16-2.55,2.64,2.64,0,0,0-1.19-2.45,7.14,7.14,0,0,0-3.67-.73h-1.56Z"/></g><g class="cls-1"><path class="cls-2" d="M409.87,83.92l-1.76-5.76h-8.84l-1.76,5.76H392l8.56-24.3h6.28l8.59,24.3Zm-3-10.07Q404.44,66,404.14,65c-.21-.69-.35-1.23-.44-1.63q-.56,2.13-3.14,10.48Z"/></g><g class="cls-1"><path class="cls-2" d="M418.55,83.92V59.71h5.14v20h9.83v4.24Z"/></g><g class="cls-1"><path class="cls-2" d="M109.12,103.35h6.35v9.08a20.7,20.7,0,0,1-3,.71,23,23,0,0,1-3.55.25,8.58,8.58,0,0,1-6.61-2.53,9.9,9.9,0,0,1-2.37-7.06,10.66,10.66,0,0,1,1.17-5.1,8,8,0,0,1,3.37-3.35,11,11,0,0,1,5.15-1.15,14.14,14.14,0,0,1,5.58,1.1l-.84,1.91a12.6,12.6,0,0,0-4.88-1.07,7,7,0,0,0-5.33,2,7.86,7.86,0,0,0-1.92,5.63,8,8,0,0,0,1.85,5.73,7.13,7.13,0,0,0,5.43,2,16.66,16.66,0,0,0,3.8-.44v-5.75h-4.18Z"/><path class="cls-2" d="M131.74,106.12a7.71,7.71,0,0,1-1.73,5.34,6.09,6.09,0,0,1-4.77,1.93,6.32,6.32,0,0,1-3.34-.89,5.82,5.82,0,0,1-2.25-2.52,8.81,8.81,0,0,1-.79-3.86,7.72,7.72,0,0,1,1.71-5.33,6.09,6.09,0,0,1,4.76-1.91,5.9,5.9,0,0,1,4.67,2A7.64,7.64,0,0,1,131.74,106.12Zm-10.68,0a6.69,6.69,0,0,0,1.07,4.09,4.28,4.28,0,0,0,6.33,0,6.58,6.58,0,0,0,1.08-4.09,6.48,6.48,0,0,0-1.08-4.05,3.82,3.82,0,0,0-3.19-1.39,3.75,3.75,0,0,0-3.15,1.37A6.55,6.55,0,0,0,121.06,106.12Z"/><path class="cls-2" d="M135.28,95.35a1.41,1.41,0,0,1,.36-1.07,1.31,1.31,0,0,1,1.77,0,1.37,1.37,0,0,1,.37,1.06,1.42,1.42,0,0,1-.37,1.07,1.23,1.23,0,0,1-.88.34,1.21,1.21,0,0,1-.89-.34A1.46,1.46,0,0,1,135.28,95.35Zm2.3,17.78h-2.12v-14h2.12Z"/><path class="cls-2" d="M150.7,113.13l-.42-2h-.1a5.94,5.94,0,0,1-2.1,1.78,6.36,6.36,0,0,1-2.6.47,4.63,4.63,0,0,1-3.26-1.08,3.9,3.9,0,0,1-1.19-3c0-2.82,2.27-4.3,6.79-4.44l2.38-.08v-.87a3.58,3.58,0,0,0-.71-2.43,2.93,2.93,0,0,0-2.27-.78,9.28,9.28,0,0,0-4,1.07l-.65-1.62a10.16,10.16,0,0,1,4.74-1.2,5.33,5.33,0,0,1,3.71,1.11,4.62,4.62,0,0,1,1.21,3.56v9.55Zm-4.8-1.49a4.34,4.34,0,0,0,3.12-1.09,4,4,0,0,0,1.13-3v-1.26l-2.12.09a7.76,7.76,0,0,0-3.65.78,2.37,2.37,0,0,0-1.12,2.17A2.2,2.2,0,0,0,144,111,2.92,2.92,0,0,0,145.9,111.64ZM145.41,97c.4-.53.85-1.17,1.32-1.92a21.24,21.24,0,0,0,1.12-2h2.58v.27a18.78,18.78,0,0,1-1.67,2,21.48,21.48,0,0,1-1.93,1.88h-1.42Z"/><path class="cls-2" d="M165.69,109.31a3.52,3.52,0,0,1-1.46,3,6.91,6.91,0,0,1-4.09,1.06,8.88,8.88,0,0,1-4.35-.89v-2a10,10,0,0,0,2.17.8,8.84,8.84,0,0,0,2.23.3,5.07,5.07,0,0,0,2.55-.53,1.76,1.76,0,0,0,.9-1.62,1.78,1.78,0,0,0-.71-1.4,11.55,11.55,0,0,0-2.77-1.37,14.92,14.92,0,0,1-2.78-1.27,3.79,3.79,0,0,1-1.23-1.23,3.2,3.2,0,0,1-.4-1.65,3.13,3.13,0,0,1,1.39-2.7,6.52,6.52,0,0,1,3.83-1,11.23,11.23,0,0,1,4.42.92l-.75,1.73a10.16,10.16,0,0,0-3.83-.87,4.44,4.44,0,0,0-2.27.47,1.47,1.47,0,0,0-.77,1.3,1.59,1.59,0,0,0,.29,1,2.86,2.86,0,0,0,.93.75,19.43,19.43,0,0,0,2.45,1,9.15,9.15,0,0,1,3.37,1.82A3.24,3.24,0,0,1,165.69,109.31Z"/></g><path class="cls-2" d="M54.5,23.26a2.46,2.46,0,0,1-2.44,2.44H32.57a2.46,2.46,0,0,1-2.44-2.44V3.77a2.46,2.46,0,0,1,2.44-2.44H52.06A2.46,2.46,0,0,1,54.5,3.77Z"/><path class="cls-2" d="M83.75,23.26a2.46,2.46,0,0,1-2.44,2.44H61.81a2.45,2.45,0,0,1-2.43-2.44V3.77a2.45,2.45,0,0,1,2.43-2.44h19.5a2.46,2.46,0,0,1,2.44,2.44Z"/><path class="cls-2" d="M83.75,81.53A2.46,2.46,0,0,1,81.31,84H61.81a2.45,2.45,0,0,1-2.43-2.44V62a2.45,2.45,0,0,1,2.43-2.43h19.5A2.45,2.45,0,0,1,83.75,62Z"/><path class="cls-2" d="M25.26,52.28a2.46,2.46,0,0,1-2.44,2.44H3.32A2.46,2.46,0,0,1,.89,52.28V32.79a2.46,2.46,0,0,1,2.43-2.44h19.5a2.46,2.46,0,0,1,2.44,2.44Z"/><path class="cls-2" d="M54.5,52.28a2.46,2.46,0,0,1-2.44,2.44H32.57a2.46,2.46,0,0,1-2.44-2.44V32.79a2.46,2.46,0,0,1,2.44-2.44H52.06a2.46,2.46,0,0,1,2.44,2.44Z"/><path class="cls-2" d="M25.26,81.53A2.46,2.46,0,0,1,22.82,84H3.32A2.46,2.46,0,0,1,.89,81.53V62A2.45,2.45,0,0,1,3.32,59.6h19.5A2.45,2.45,0,0,1,25.26,62Z"/><path class="cls-2" d="M54.5,81.53A2.46,2.46,0,0,1,52.06,84H32.57a2.46,2.46,0,0,1-2.44-2.44V62a2.45,2.45,0,0,1,2.44-2.43H52.06A2.45,2.45,0,0,1,54.5,62Z"/><path class="cls-2" d="M25.26,110.77a2.46,2.46,0,0,1-2.44,2.44H3.32a2.46,2.46,0,0,1-2.43-2.44V91.28a2.46,2.46,0,0,1,2.43-2.44h19.5a2.46,2.46,0,0,1,2.44,2.44Z"/><path class="cls-2" d="M54.5,110.77a2.46,2.46,0,0,1-2.44,2.44H32.57a2.46,2.46,0,0,1-2.44-2.44V91.28a2.46,2.46,0,0,1,2.44-2.44H52.06a2.46,2.46,0,0,1,2.44,2.44Z"/><path class="cls-2" d="M26.59,13.29A13.3,13.3,0,1,1,13.29,0a13.34,13.34,0,0,1,13.3,13.29"/></g></g></svg>