<svg xmlns="http://www.w3.org/2000/svg" viewBox="0 0 412.78 107.29"><defs><style>.cls-1,.cls-3{fill:#fff;}.cls-2{fill:#00a599;}.cls-3{font-size:19.39px;font-family:GillSans-Light, GillSans Light;font-weight:300;letter-spacing:0.2em;}.cls-4{letter-spacing:0.2em;}.cls-5{letter-spacing:0.2em;}</style></defs><g id="Layer_2" data-name="Layer 2"><g id="Layer_1-2" data-name="Layer 1"><path class="cls-1" d="M58.94,60.72a29.64,29.64,0,1,1,0-43.6,44.06,44.06,0,0,1,5.25-7.76,38.92,38.92,0,1,0,0,59.12A44.43,44.43,0,0,1,58.94,60.72Z"/><path class="cls-2" d="M123,57.54a29.66,29.66,0,1,1,.86-36.08h10.84a38.87,38.87,0,1,0-.56,36.08Z"/><path class="cls-2" d="M178,68.67v4.07A19.33,19.33,0,0,1,168.62,75a14.57,14.57,0,0,1-7.34-1.73,13.16,13.16,0,0,1-6.54-11.41,12.59,12.59,0,0,1,4-9.5,13.78,13.78,0,0,1,9.92-3.85,23.09,23.09,0,0,1,9.06,2.13v4A17.78,17.78,0,0,0,168.89,52a10.23,10.23,0,0,0-7.38,2.8,9.31,9.31,0,0,0-2.94,7,9.18,9.18,0,0,0,2.89,7,10.28,10.28,0,0,0,7.39,2.74A16.77,16.77,0,0,0,178,68.67Z"/><path class="cls-2" d="M195.28,48.43a13.92,13.92,0,0,1,10,3.8,12.61,12.61,0,0,1,4,9.51,12.38,12.38,0,0,1-4,9.47A14.28,14.28,0,0,1,195.08,75a13.51,13.51,0,0,1-9.75-3.75,12.46,12.46,0,0,1-3.89-9.39,12.76,12.76,0,0,1,3.92-9.59A13.68,13.68,0,0,1,195.28,48.43Zm.15,3.52a10,10,0,0,0-7.3,2.78,9.43,9.43,0,0,0-2.86,7.09,9.25,9.25,0,0,0,2.87,7,10.66,10.66,0,0,0,14.4-.06,9.45,9.45,0,0,0,2.89-7,9.25,9.25,0,0,0-2.89-6.92A9.84,9.84,0,0,0,195.43,52Z"/><path class="cls-2" d="M234.37,48.8h3.46V74.67h-3.72V54.54l-8,10h-.69l-8-10V74.67h-3.7V48.8h3.5l8.6,10.62Z"/><path class="cls-2" d="M243.2,74.67V48.76h8.21a8.47,8.47,0,0,1,5.9,2,6.89,6.89,0,0,1,2.2,5.37,7.12,7.12,0,0,1-1.13,4,6.41,6.41,0,0,1-3.09,2.53,15.6,15.6,0,0,1-5.63.79h-2.74V74.67Zm7.56-22.61h-3.84v8.09H251a5.14,5.14,0,0,0,3.48-1.06A3.85,3.85,0,0,0,255.68,56Q255.68,52.07,250.76,52.06Z"/><path class="cls-2" d="M280.73,48.8h3.72V63.48A17.61,17.61,0,0,1,284,68a9.54,9.54,0,0,1-1.08,2.52,8.08,8.08,0,0,1-1.56,1.8,13.65,13.65,0,0,1-16.14,0,8.46,8.46,0,0,1-1.57-1.82A9.42,9.42,0,0,1,262.61,68a18.73,18.73,0,0,1-.41-4.59V48.8h3.72V63.48a11,11,0,0,0,.83,5.08,6,6,0,0,0,2.54,2.28,8.7,8.7,0,0,0,4,.86A8.12,8.12,0,0,0,278.68,70a5.46,5.46,0,0,0,1.57-2.18,13.51,13.51,0,0,0,.48-4.32Z"/><path class="cls-2" d="M287.38,48.76H309v3.3h-9V74.67h-3.72V52.06h-8.87Z"/><path class="cls-2" d="M317,48.65h2.6l11.6,26h-3.8L323.91,67h-11l-3.23,7.67h-3.81Zm5.44,15.06-4.17-9.37-3.88,9.37Z"/><path class="cls-2" d="M346.79,75l-.09.32a2.85,2.85,0,0,1,1.57.92,2.43,2.43,0,0,1,.56,1.56,3.1,3.1,0,0,1-1.13,2.4,5.43,5.43,0,0,1-3.61,1,6.91,6.91,0,0,1-1.2-.1V79c.63.05,1,.07,1.18.07a2.88,2.88,0,0,0,1.65-.4.74.74,0,0,0,.35-.63.91.91,0,0,0-.38-.74,2.36,2.36,0,0,0-1.4-.3,1.58,1.58,0,0,0-.42.06l.77-2.18a13.12,13.12,0,0,1-5.13-1.61A13.16,13.16,0,0,1,333,61.82a12.62,12.62,0,0,1,4-9.5,13.83,13.83,0,0,1,9.94-3.85A23.12,23.12,0,0,1,356,50.6v4A17.75,17.75,0,0,0,347.13,52a10.23,10.23,0,0,0-7.38,2.8,9.31,9.31,0,0,0-2.94,7,9.18,9.18,0,0,0,2.89,7,10.3,10.3,0,0,0,7.39,2.74,16.77,16.77,0,0,0,9.18-2.88v4.07a19.32,19.32,0,0,1-9.4,2.22Z"/><path class="cls-2" d="M369.08,48.65h2.61l11.59,26H379.5L376,67H365l-3.23,7.67H358Zm6.76-6.88a5.54,5.54,0,0,1-1,3.5,2.41,2.41,0,0,1-1.95,1,7.4,7.4,0,0,1-2.74-.75,7.63,7.63,0,0,0-2.59-.73,1.12,1.12,0,0,0-.84.37,1.83,1.83,0,0,0-.42,1.11h-1.56a6.69,6.69,0,0,1,1.08-3.49,2.49,2.49,0,0,1,2-.88,11.1,11.1,0,0,1,3.5,1,5.73,5.73,0,0,0,1.78.5,1.19,1.19,0,0,0,.88-.37,2.07,2.07,0,0,0,.48-1.22Zm-1.32,21.94-4.16-9.37-3.88,9.37Z"/><path class="cls-2" d="M398.81,48.43a13.9,13.9,0,0,1,10,3.8,12.58,12.58,0,0,1,4,9.51,12.34,12.34,0,0,1-4,9.47A14.29,14.29,0,0,1,398.6,75a13.5,13.5,0,0,1-9.74-3.75A12.5,12.5,0,0,1,385,61.82a12.8,12.8,0,0,1,3.92-9.59A13.68,13.68,0,0,1,398.81,48.43ZM399,52a10,10,0,0,0-7.3,2.78,9.47,9.47,0,0,0-2.86,7.09,9.29,9.29,0,0,0,2.87,7,10.66,10.66,0,0,0,14.4-.06,9.45,9.45,0,0,0,2.89-7,9.25,9.25,0,0,0-2.89-6.92A9.82,9.82,0,0,0,399,52Z"/><path class="cls-1" d="M165.94,10.8a8.72,8.72,0,0,0-6.81,2.77,10.94,10.94,0,0,0-2.48,7.57q0,4.92,2.35,7.63a8.32,8.32,0,0,0,6.69,2.72,17.94,17.94,0,0,0,5.31-.74v1.41a17.21,17.21,0,0,1-5.69.8,9.65,9.65,0,0,1-7.61-3.12q-2.79-3.12-2.79-8.73a13.63,13.63,0,0,1,1.33-6.17,9.58,9.58,0,0,1,3.82-4.12,11.21,11.21,0,0,1,5.78-1.46,13.85,13.85,0,0,1,6,1.26l-.65,1.44A11.72,11.72,0,0,0,165.94,10.8Z"/><path class="cls-1" d="M176.11,32.65v-23h1.6v23Z"/><path class="cls-1" d="M196.77,32.65H184.22v-23h12.55v1.48h-11v8.68h10.33v1.48H185.82v9.84h11Zm-10.86-25c.65-.71,1.34-1.52,2.07-2.46a25.2,25.2,0,0,0,1.73-2.45h1.54a31.07,31.07,0,0,0,3.8,4.91v.25H194a39,39,0,0,1-3.47-3.26A37.54,37.54,0,0,1,187,7.86h-1.1Z"/><path class="cls-1" d="M218.66,32.65H217l-13.6-20.38h-.12c.12,2.43.18,4.26.18,5.5V32.65H202v-23h1.6l13.59,20.36h.09c-.09-1.89-.14-3.68-.14-5.38v-15h1.56Z"/><path class="cls-1" d="M235,10.8a8.68,8.68,0,0,0-6.8,2.77,11,11,0,0,0-2.49,7.57q0,4.92,2.34,7.63a8.36,8.36,0,0,0,6.7,2.72,17.94,17.94,0,0,0,5.31-.74v1.41a17.21,17.21,0,0,1-5.69.8,9.67,9.67,0,0,1-7.61-3.12q-2.79-3.12-2.79-8.73a13.63,13.63,0,0,1,1.33-6.17,9.58,9.58,0,0,1,3.82-4.12,11.23,11.23,0,0,1,5.78-1.46,13.88,13.88,0,0,1,6,1.26l-.64,1.44A11.79,11.79,0,0,0,235,10.8Z"/><path class="cls-1" d="M245.13,32.65v-23h1.61v23Z"/><path class="cls-1" d="M264.29,24.55H255l-3.2,8.1H250l9.23-23h1l9.05,23h-1.81Zm-8.74-1.44h8.21l-3.13-8.28c-.26-.65-.57-1.55-.94-2.7a23.47,23.47,0,0,1-.93,2.73Z"/><path class="cls-1" d="M298.32,21q0,5.79-3,8.74t-8.91,3h-5.5v-23h6.21q5.49,0,8.36,2.88C297.37,14.48,298.32,17.28,298.32,21Zm-1.74.07q0-4.93-2.5-7.43c-1.68-1.66-4.13-2.48-7.36-2.48h-4.23V31.24h3.8Q296.58,31.24,296.58,21Z"/><path class="cls-1" d="M314.66,24.55h-9.33l-3.21,8.1h-1.77l9.24-23h1l9,23h-1.81Zm-8.75-1.44h8.21L311,14.83c-.26-.65-.58-1.55-.94-2.7a27.93,27.93,0,0,1-.93,2.73Z"/><path class="cls-2" d="M100,45.91a7,7,0,1,1,7-7A7,7,0,0,1,100,45.91Z"/><rect class="cls-2" x="100" y="37.33" width="37.76" height="3.18"/><text class="cls-3" transform="translate(154.91 102.44)">IFG <tspan class="cls-4" x="46.23" y="0">A</tspan><tspan class="cls-5" x="61.92" y="0">nápolis</tspan></text></g></g></svg>